<svg id="Layer_1" enable-background="new 0 0 256 256" height="512" viewBox="0 0 256 256" width="512" xmlns="http://www.w3.org/2000/svg"><path d="m14 6.923h228v120.572h-228z" fill="#f4efed"/><path d="m56.988 54.209v17.462l15.122 8.731 15.122-8.731v-17.462l-15.122-8.731z" fill="#fcc24c"/><path d="m87.232 54.209v17.462l15.123 8.731 15.122-8.731v-17.462l-15.122-8.731z" fill="#fcc24c"/><path d="m72.11 28.016v17.461l15.122 8.731 15.123-8.731v-17.461l-15.123-8.731z" fill="#fcc24c"/><path d="m232 6.923h10v120.572h-10z" fill="#d6d1cf"/><path d="m14 6.923h10v120.572h-10z" fill="#fff"/><path d="m242 129.495h-228c-1.104 0-2-.896-2-2v-120.572c0-1.104.896-2 2-2h228c1.104 0 2 .896 2 2v120.572c0 1.105-.896 2-2 2zm-226-4h224v-116.572h-224z" fill="#690589"/><path d="m4 190.694h248v58.383h-248z" fill="#526faa"/><path d="m242 190.694h10v58.383h-10z" fill="#34518c"/><path d="m4 190.694h10v58.383h-10z" fill="#708dc8"/><path d="m35.273 170.02h-1.521v-27.176h-11.763v27.176h-1.521c-5.709 0-10.337 4.628-10.337 10.337s4.628 10.337 10.337 10.337h14.805c5.709 0 10.337-4.628 10.337-10.337s-4.628-10.337-10.337-10.337z" fill="#fcc24c"/><path d="m15.132 180.357c0-5.709 4.628-10.336 10.337-10.336h1.521v-27.175h-5v27.175h-1.521c-5.709 0-10.337 4.628-10.337 10.336 0 5.709 4.628 10.337 10.337 10.337h5c-5.709 0-10.337-4.628-10.337-10.337z" fill="#fce06a"/><path d="m21.989 142.845h11.764v27.176h-11.764z" fill="#f4efed"/><path d="m21.989 142.845h5v27.176h-5z" fill="#fff"/><path d="m92.293 107.589c-.837 0-1.617-.529-1.896-1.366l-13.37-39.978c-.351-1.048.215-2.182 1.262-2.531 1.051-.352 2.182.215 2.531 1.262l13.37 39.978c.351 1.048-.215 2.182-1.262 2.531-.211.07-.425.104-.635.104z" fill="#690589"/><path d="m113.586 143.203-14.415-40.31c-1.488-4.161-6.067-6.327-10.228-4.84-4.16 1.488-6.326 6.066-4.839 10.227l16.843 47.098c1.16 3.242 4.22 5.308 7.529 5.308.629 0 1.266-.074 1.901-.23l31.694-7.736v37.974h89.738v-40.206c0-8.026-6.506-14.532-14.532-14.532h-70.57z" fill="#f4efed"/><path d="m217.277 135.955h-8c8.026 0 14.532 6.506 14.532 14.532v40.206h8v-40.206c.001-8.026-6.506-14.532-14.532-14.532z" fill="#d6d1cf"/><path d="m231.81 192.693h-89.737c-1.104 0-2-.896-2-2v-35.427l-29.22 7.133c-.778.189-1.578.286-2.376.286-4.21 0-7.992-2.666-9.412-6.634l-16.843-47.098c-1.856-5.192.856-10.927 6.048-12.783 5.189-1.858 10.928.857 12.784 6.049l13.823 38.653 31.402-6.872c.141-.03.284-.046.428-.046h70.57c9.116 0 16.532 7.416 16.532 16.532v40.206c.001 1.106-.895 2.001-1.999 2.001zm-87.738-4h85.737v-38.206c0-6.91-5.622-12.532-12.532-12.532h-70.354l-32.909 7.202c-.98.216-1.972-.333-2.311-1.28l-14.415-40.31c-1.115-3.114-4.551-4.74-7.672-3.631-3.114 1.114-4.742 4.556-3.629 7.671l16.843 47.097c.853 2.382 3.121 3.981 5.646 3.981.479 0 .959-.058 1.427-.173l31.694-7.736c.599-.144 1.226-.009 1.71.37.482.38.765.959.765 1.573z" fill="#690589"/><path d="m216.124 192.693c-1.104 0-2-.896-2-2v-28.606c0-1.104.896-2 2-2s2 .896 2 2v28.606c0 1.105-.895 2-2 2z" fill="#690589"/><path d="m252 251.077h-248c-1.104 0-2-.896-2-2v-58.384c0-1.104.896-2 2-2h248c1.104 0 2 .896 2 2v58.384c0 1.105-.896 2-2 2zm-246-4h244v-54.384h-244z" fill="#690589"/><path d="m12 218.626c-1.104 0-2-.896-2-2v-12c0-1.104.896-2 2-2s2 .896 2 2v12c0 1.104-.896 2-2 2z" fill="#690589"/><path d="m35.273 192.693h-14.804c-6.803 0-12.337-5.534-12.337-12.337 0-6.642 5.276-12.074 11.857-12.327v-25.185c0-1.104.896-2 2-2h11.764c1.104 0 2 .896 2 2v25.185c6.581.253 11.857 5.686 11.857 12.327 0 6.803-5.534 12.337-12.337 12.337zm-14.804-20.672c-4.597 0-8.337 3.739-8.337 8.336s3.74 8.337 8.337 8.337h14.805c4.597 0 8.337-3.74 8.337-8.337s-3.74-8.336-8.337-8.336h-1.521c-1.104 0-2-.896-2-2v-25.176h-7.764v25.176c0 1.104-.896 2-2 2z" fill="#690589"/><path d="m36.836 144.845h-17.93c-1.104 0-2-.896-2-2s.896-2 2-2h17.93c1.104 0 2 .896 2 2s-.896 2-2 2z" fill="#690589"/><path d="m33.753 172.021h-11.764c-1.104 0-2-.896-2-2v-27.176c0-1.104.896-2 2-2h11.764c1.104 0 2 .896 2 2v27.176c0 1.104-.896 2-2 2zm-9.764-4h7.764v-23.176h-7.764z" fill="#690589"/><path d="m80.752 170.02h-1.521v-27.176h-11.764v27.176h-1.521c-5.709 0-10.337 4.628-10.337 10.337s4.628 10.337 10.337 10.337h14.805c5.709 0 10.337-4.628 10.337-10.337s-4.628-10.337-10.336-10.337z" fill="#ff4397"/><path d="m67.467 142.845h11.764v27.176h-11.764z" fill="#f4efed"/><g fill="#690589"><path d="m80.752 192.693h-14.806c-6.802 0-12.336-5.534-12.336-12.337 0-6.642 5.276-12.074 11.857-12.327v-25.185c0-1.104.896-2 2-2h11.763c1.104 0 2 .896 2 2v25.185c6.581.253 11.857 5.686 11.857 12.327.001 6.803-5.533 12.337-12.335 12.337zm-14.806-20.672c-4.597 0-8.336 3.739-8.336 8.336s3.739 8.337 8.336 8.337h14.806c4.597 0 8.336-3.74 8.336-8.337s-3.739-8.336-8.336-8.336h-1.522c-1.104 0-2-.896-2-2v-25.176h-7.763v25.176c0 1.104-.896 2-2 2z"/><path d="m82.314 144.845h-17.93c-1.104 0-2-.896-2-2s.896-2 2-2h17.931c1.104 0 2 .896 2 2s-.896 2-2.001 2z"/><path d="m79.23 172.021h-11.762c-1.104 0-2-.896-2-2v-27.176c0-1.104.896-2 2-2h11.762c1.104 0 2 .896 2 2v27.176c0 1.104-.895 2-2 2zm-9.762-4h7.763v-23.176h-7.763z"/><path d="m72.11 82.401c-.346 0-.69-.089-1-.268l-15.122-8.73c-.619-.357-1-1.018-1-1.732v-17.462c0-.715.381-1.375 1-1.732l15.122-8.73c.619-.357 1.381-.357 2 0l15.122 8.73c.619.357 1 1.018 1 1.732v17.462c0 .715-.381 1.375-1 1.732l-15.122 8.73c-.309.179-.654.268-1 .268zm-13.122-11.884 13.122 7.575 13.122-7.575v-15.154l-13.122-7.575-13.122 7.575z"/><path d="m102.354 82.401c-.346 0-.69-.089-1-.268l-15.122-8.73c-.619-.357-1-1.018-1-1.732v-17.462c0-.715.381-1.375 1-1.732l15.122-8.73c.619-.357 1.381-.357 2 0l15.122 8.73c.619.357 1 1.018 1 1.732v17.462c0 .715-.381 1.375-1 1.732l-15.122 8.73c-.309.179-.654.268-1 .268zm-13.122-11.884 13.122 7.575 13.122-7.575v-15.154l-13.122-7.575-13.122 7.575z"/><path d="m87.232 56.208c-.346 0-.69-.089-1-.268l-15.122-8.73c-.619-.357-1-1.018-1-1.732v-17.462c0-.715.381-1.375 1-1.732l15.122-8.73c.619-.357 1.381-.357 2 0l15.122 8.73c.619.357 1 1.018 1 1.732v17.462c0 .715-.381 1.375-1 1.732l-15.122 8.73c-.309.179-.654.268-1 .268zm-13.122-11.885 13.122 7.575 13.122-7.575v-15.153l-13.122-7.575-13.122 7.575z"/><path d="m59.041 90.951h-27.28c-1.104 0-2-.896-2-2s.896-2 2-2h27.28c1.104 0 2 .896 2 2s-.895 2-2 2z"/><path d="m59.041 101.344h-27.28c-1.104 0-2-.896-2-2s.896-2 2-2h27.28c1.104 0 2 .896 2 2s-.895 2-2 2z"/><path d="m45.61 111.735h-13.85c-1.104 0-2-.896-2-2s.896-2 2-2h13.85c1.104 0 2 .896 2 2s-.895 2-2 2z"/></g><path d="m208.407 116.092v-37.637h-57.398v37.637h-1.601c-5.485 0-9.931 4.446-9.931 9.931 0 5.485 4.446 9.931 9.931 9.931h1.601 57.398 1.534c5.485 0 9.931-4.446 9.931-9.931 0-5.485-4.446-9.931-9.931-9.931z" fill="#fcc24c"/><path d="m209.941 137.955h-60.533c-6.579 0-11.932-5.353-11.932-11.932 0-6.445 5.138-11.714 11.532-11.925v-35.643c0-1.104.896-2 2-2h57.398c1.104 0 2 .896 2 2v35.646c6.364.245 11.466 5.5 11.466 11.923.001 6.579-5.351 11.931-11.931 11.931zm-60.533-19.863c-4.373 0-7.932 3.559-7.932 7.932s3.559 7.932 7.932 7.932h60.533c4.373 0 7.932-3.559 7.932-7.932s-3.559-7.932-7.932-7.932h-1.534c-1.104 0-2-.896-2-2v-35.637h-53.398v35.637c0 1.104-.896 2-2 2z" fill="#690589"/><path d="m168.395 117.717h22.56v21.688c0 6.23-5.05 11.28-11.28 11.28-6.23 0-11.28-5.05-11.28-11.28z" fill="#ff9f70"/><path d="m179.675 152.685c-7.323 0-13.28-5.957-13.28-13.28v-21.688c0-1.104.896-2 2-2h22.56c1.104 0 2 .896 2 2v21.688c-.001 7.323-5.958 13.28-13.28 13.28zm-9.28-32.968v19.688c0 5.117 4.163 9.28 9.28 9.28 5.116 0 9.279-4.163 9.279-9.28v-19.688z" fill="#690589"/><path d="m179.675 132.271c-12.569 0-22.757-10.321-22.757-23.053v-15.96c0-12.732 10.189-23.053 22.757-23.053 12.569 0 22.757 10.321 22.757 23.053v15.96c0 12.732-10.189 23.053-22.757 23.053z" fill="#ff9f70"/><path d="m179.675 134.271c-13.651 0-24.758-11.239-24.758-25.054v-15.96c0-13.814 11.106-25.053 24.758-25.053s24.757 11.238 24.757 25.053v15.96c0 13.815-11.106 25.054-24.757 25.054zm0-62.066c-11.446 0-20.758 9.444-20.758 21.053v15.96c0 11.609 9.312 21.054 20.758 21.054 11.445 0 20.757-9.444 20.757-21.054v-15.96c0-11.609-9.312-21.053-20.757-21.053z" fill="#690589"/><path d="m190.423 58.448c-2.125 0-3.923 1.391-4.54 3.311-.616-1.92-2.415-3.311-4.54-3.311h-12.35c-9.933 0-17.984 8.052-17.984 17.984v13.488h19.894c7.12 0 13.096-4.893 14.752-11.5v2.535c0 10.219 8.284 18.502 18.502 18.502h4.251v-23.025c-.001-9.932-8.053-17.984-17.985-17.984z" fill="#fcc24c"/><path d="m208.407 101.457h-4.251c-9.688 0-17.83-6.756-19.959-15.805-3.188 3.876-8.009 6.268-13.295 6.268h-19.894c-1.104 0-2-.896-2-2v-13.487c0-11.02 8.965-19.984 19.984-19.984h12.351c1.725 0 3.326.645 4.539 1.742 1.213-1.098 2.814-1.742 4.54-1.742 11.02 0 19.984 8.965 19.984 19.984v23.024c.001 1.105-.894 2-1.999 2zm-22.755-25.037c.082 0 .164.005.247.015 1.002.124 1.755.976 1.755 1.985v2.535c0 9.1 7.402 16.502 16.502 16.502h2.251v-21.024c0-8.813-7.171-15.984-15.984-15.984-1.208 0-2.267.772-2.636 1.922-.266.827-1.035 1.389-1.904 1.389s-1.639-.562-1.904-1.389c-.369-1.149-1.428-1.922-2.635-1.922h-12.351c-8.813 0-15.984 7.171-15.984 15.984v11.487h17.894c6.069 0 11.338-4.106 12.812-9.986.224-.899 1.032-1.514 1.937-1.514z" fill="#690589"/></svg>